<svg xmlns="http://www.w3.org/2000/svg" xmlns:xlink="http://www.w3.org/1999/xlink" viewBox="0 0 842 666">
  <defs>
    <style>
      .cls-1 {
        isolation: isolate;
       
      }

      .cls-2 {

        fill-rule: evenodd;
      }
    </style>
  </defs>
  <g id="crown" class="cls-1">
    <path class="cls-2" d="M574,32c28.2-.6,55.6,11.2,76,19,83.3,31.7,129.2,61.2,165,141,12.3,27.5,13,69,20,98,3.3,13.4,1,32.8,1,48v84c-1.5,6.1-2,15.2-2,24,0,16.1-3.4,49.5-16,51-7.2,4.6-18.4.7-28,3-3.2.8-8.5,3.4-14,2-3.6-.9-9.9-3.4-16-2-10.1,2.4-30.7,3-42,0-7.6-2-26-10.8-38-8-8.3,1.9-22.1,6.3-33,4-7-1.5-10.8-5.8-18-6-22.5-.6-44.1-6.3-63-13-4.7-.7-13.3-3.3-18-4s-10-3.4-16-5c-3.3-.3-10.7-2.7-14-3-9.8-4.2-16.1-5.5-27-10l-13-5H464c-5.9-1.5-12.9-2.1-20-4-20.7-5.6-46.1-8.2-68-14l-24-3c-2.4-.9-5.6-4.2-8-5-5.3-1.7-9,1.4-12,2-1.5.3-18.7-1.2-22-2s-10.1-.7-14-2-6.6-5-10-6-21.3-1-26-1c-6.9.8-12-1.9-19-2-12.9-.2-21.7,1.5-32-1-6.2-1.5-27.4,1.9-32-1-4.5-1.4-1.7-5-1-9-.4-19.1,3.8-37.4,8-54,3.4-13.6-1.3-25,2-38,4.2-16.7,5.3-35,10-52s11.1-36.6,17-52c2.2-5.7,1.5-10.4,4-16,22.8-50.6,64.2-90.2,111-117,4.1-2.4,8.6-1.9,13-4,10.5-5,24.5-9.5,35-14l10-1c12-3.2,27.7-6.9,40-10h12c21.9-5.4,48.1-7.9,74-8-.5-5-3.9-11.6-1-16,5.7-18.8,60-16.9,62,4C574.1,25.7,574.1,28.9,574,32Z"/>
  </g>
  <g id="visor" class="cls-1">
    <path class="cls-2" d="M186,410c8.2-.1,16.5.6,22,2,12.5,3.1,29.7-.5,40,2,13.5,3.4,25-1.5,38,2,4,1.1,6.6,4.9,10,6s11.2,1.3,14,2,18.5,2.3,20,2c3-.6,8.7-3.7,14-2,2.4.8,5.6,4.1,8,5l24,3c21.9,5.9,47.3,8.4,68,14,7.1,1.9,14.1,2.5,20,4h14c35.8,14.7,80.4,25.3,120,36,13.2,3.6,24.4,2.5,38,6,3,.8,7,3.2,10,4,10.7,2.7,25.8-2,34-4s17.3,1.7,24,3a19.2,19.2,0,0,1,1,7c-6.4,4.3-10.6,11.6-16,17s-14.1,11.4-20,18-7,11.4-12,16c-9.9,9.1-21.8,15.2-32,24-20.4,17.5-41.4,38.2-65,52-14.1,8.2-30.7,13.4-46,20-6.6,2.8-12.3,1.1-20,3-29.7,7.4-76,1-102-8-12.3-4.3-23.7-4.5-36-9-17-6.2-36.9-14.3-53-22-8.2-3.9-17.1-2.5-25-6a713.6,713.6,0,0,0-112-39H148c-13-3.2-39.5-7.2-52-2-19,7.9-41.5-1.7-65,19-7.7,6.8-3,8.9-19,9-1-.8-.3-.4-2-1-1.7-2.7-2.5-2.5-3-7-.8-1.7-.2-2.6,0-6,7.1-4.8,12-13,18-19s13.5-10.2,20-16c1-.9,1.1-3.1,2-4,4.4-4.3,9.7-7.7,14-12,2.3-2.3,3.6-5.8,6-8s7.1-3.4,10-6,3.7-5.7,6-8c9.7-9.7,20.3-18.3,30-28,5-5,8.8-11.3,14-16,2.9-2.6,7.1-3.4,10-6s5.1-7.1,8-10,7.2-4.9,10-8c7.6-8.6,13.3-18.6,21-27C180.2,412.1,183.7,411.8,186,410Z"/>
  </g>
  <g id="shadow">
    <image id="Layer_4_Image" data-name="Layer 4 Image" width="842" height="666" xlink:href="assets/cap1.png"/>
  </g>
</svg>
